<?xml version="1.0" encoding="UTF-8" standalone="no"?>
<!-- Created with Inkscape (http://www.inkscape.org/) -->

<svg
   xmlns:dc="http://purl.org/dc/elements/1.1/"
   xmlns:cc="http://creativecommons.org/ns#"
   xmlns:rdf="http://www.w3.org/1999/02/22-rdf-syntax-ns#"
   xmlns:svg="http://www.w3.org/2000/svg"
   xmlns="http://www.w3.org/2000/svg"
   xmlns:sodipodi="http://sodipodi.sourceforge.net/DTD/sodipodi-0.dtd"
   xmlns:inkscape="http://www.inkscape.org/namespaces/inkscape"
   version="1.0"
   width="411"
   height="186"
   viewBox="0 0 612.03127 792.03834"
   id="root"
   xml:space="preserve"
   sodipodi:version="0.32"
   inkscape:version="0.48.4 r9939"
   sodipodi:docname="Marvel - Logo.svg"
   inkscape:output_extension="org.inkscape.output.svg.inkscape"><metadata
   id="metadata2488"><rdf:RDF><cc:Work
       rdf:about=""><dc:format>image/svg+xml</dc:format><dc:type
         rdf:resource="http://purl.org/dc/dcmitype/StillImage" /></cc:Work></rdf:RDF></metadata><sodipodi:namedview
   inkscape:window-height="1014"
   inkscape:window-width="1920"
   inkscape:pageshadow="2"
   inkscape:pageopacity="0.0"
   guidetolerance="10.0"
   gridtolerance="10.0"
   objecttolerance="10.0"
   borderopacity="1.0"
   bordercolor="#666666"
   pagecolor="#ffffff"
   id="base"
   showgrid="false"
   inkscape:zoom="1.3236686"
   inkscape:cx="205.4895"
   inkscape:cy="92.995499"
   inkscape:window-x="-8"
   inkscape:window-y="-8"
   inkscape:current-layer="root"
   inkscape:window-maximized="1" />
 Converted with TEXTCAFE (tm) http://www.texterity.com 
  <title
   id="title2418">Marvel Comics -- Page 1</title>
  <defs
   id="defs2420"><inkscape:perspective
   sodipodi:type="inkscape:persp3d"
   inkscape:vp_x="0 : 92.995499 : 1"
   inkscape:vp_y="0 : 1000 : 0"
   inkscape:vp_z="410.979 : 92.995499 : 1"
   inkscape:persp3d-origin="205.4895 : 61.996999 : 1"
   id="perspective2490" />
    <style
   type="text/css"
   id="style2422" />
    <clipPath
   id="id2">
      <rect
   width="612"
   height="792"
   x="0"
   y="0"
   id="rect2425" />
    </clipPath>
    <clipPath
   id="id3">
      <path
   d="M 0,792 612,792 612,0 0,0 0,792 z"
   id="path2428"
   inkscape:connector-curvature="0" />
    </clipPath>
  
    
  
      
    </defs>
  <defs
   id="defs2430" />
  
<g
   clip-path="url(#id3)"
   id="g2505"
   transform="matrix(4.2584882,0,0,-4.2584767,-984.66262,2094.7659)">
        <path
   d="m 508.58,305.914 -410.979,0 0,185.991 410.979,0 0,-185.991 z"
   id="path2507"
   style="fill:#f11e22;fill-rule:nonzero;stroke:none"
   inkscape:connector-curvature="0" />
        <path
   d="m 452.5,465.5 23,0 0,-109 19.5,0 0,-27.5 -42.5,0 0,136.5 z"
   id="path2509"
   style="fill:#ffffff;fill-rule:nonzero;stroke:none"
   inkscape:connector-curvature="0" />
        
        
        <path
   d="m 294,400.5 c 16.5,1 15,21.5 15,21.5 -2.5,20 -15,19 -15,19 l 0,-40.5 z m -53,-31.5 -7,41.5 -6,-41.5 13,0 z m -126.5,-39.5 0,136 31,0 11,-57 12.5,57 30,0 0,-122.5 19.5,122.5 30.5,0 19,-122.5 0,122 40.5,0 c 0,0 14,-2.5 21,-22 l -3,22.5 24.5,0 11.5,-70.5 12,70 69,0 0,-25.5 -20.5,0 0,-28 19.5,0 0,-28.5 -19,0 0,-26 20,0 0,-27.5 -44.5,0 0,131 -23,-131 -27.5,0 -14.5,87 c 0,0 -2.5,-24 -16,-35 l 17.5,-52 -24,0 -17,45.5 0,-45.5 -48.5,0 -2.5,13 -18.5,0 -4,-13 -46,0 0,50 -12,-50 -12.5,0 -11,49.5 0,-49 -25,-0.5 z"
   id="path2515"
   style="fill:#ffffff;fill-rule:nonzero;stroke:none"
   inkscape:connector-curvature="0" />
      </g></svg>